<svg width="62" height="62" viewBox="0 0 62 62" fill="none" xmlns="http://www.w3.org/2000/svg">
<path fill-rule="evenodd" clip-rule="evenodd" d="M10.7653 62C4.82008 62 8.53539e-05 57.1798 8.53539e-05 51.2345C8.53539e-05 39.8863 8.53539e-05 22.1137 8.53539e-05 10.7655C8.53539e-05 4.82022 4.82008 1.19209e-07 10.7653 1.19209e-07H51.2348C57.18 1.19209e-07 62 4.82022 62 10.7655C62 22.1137 62 39.8863 62 51.2345C62 57.1798 57.18 62 51.2348 62C39.8865 62 22.1135 62 10.7653 62Z" fill="url(#paint0_linear_642_310)"/>
<path fill-rule="evenodd" clip-rule="evenodd" d="M18.4044 25.9364C18.4044 25.9364 19.2322 21.1635 19.7056 18.4317C19.892 17.3557 20.8256 16.5694 21.9186 16.5674C28.0882 16.5602 47.244 16.5386 47.244 16.5386C47.244 16.5386 46.2353 21.4163 45.6712 24.144C45.4551 25.1882 44.5355 25.9364 43.469 25.9364C37.412 25.9364 18.4044 25.9364 18.4044 25.9364Z" fill="#282B33"/>
<path fill-rule="evenodd" clip-rule="evenodd" d="M26.3124 30.506C26.5037 29.434 27.4363 28.653 28.5254 28.653C33.1052 28.653 44.4524 28.653 44.4524 28.653C44.4524 28.653 43.7466 32.6314 43.3139 35.0713C43.1238 36.1442 42.1904 36.9263 41.1005 36.9263C36.9293 36.9263 27.2832 36.9263 27.2832 36.9263C25.7599 36.9263 25.7462 37.951 25.4389 39.4228C25.4389 39.4228 24.8555 42.2511 24.4544 44.1966C24.239 45.2408 23.319 45.9911 22.2525 45.9911C19.4481 45.9911 14.4115 45.9911 14.4115 45.9911C14.4115 45.9911 15.3432 41.3745 15.8768 38.7301C16.0881 37.6807 17.0103 36.9263 18.0803 36.9263C20.3692 36.9263 23.9788 36.9263 23.9788 36.9263C25.4136 36.9263 25.3424 35.9407 25.5917 34.544C25.5917 34.544 26.004 32.2336 26.3124 30.506Z" fill="#282B33"/>
<defs>
<linearGradient id="paint0_linear_642_310" x1="33.0699" y1="25.2666" x2="0.370847" y2="6.40183" gradientUnits="userSpaceOnUse">
<stop stop-color="#01FFC2"/>
<stop offset="0.42" stop-color="#41FB85"/>
<stop offset="1" stop-color="#CBF200"/>
</linearGradient>
</defs>
</svg>
