<svg width="116" height="36" viewBox="0 0 116 36" fill="none" xmlns="http://www.w3.org/2000/svg">
<path fill-rule="evenodd" clip-rule="evenodd" d="M41.3898 25.3526C41.3898 25.3526 43.1242 13.2843 43.5378 10.4068C43.5881 10.0563 43.8882 9.79626 44.2425 9.79626C45.5323 9.79626 48.3964 9.79626 48.3964 9.79626L51.3495 16.8976H51.4897C51.4897 16.8976 52.175 12.1288 52.4225 10.4068C52.4729 10.0563 52.7731 9.79626 53.1271 9.79626C54.3479 9.79626 56.9549 9.79626 56.9549 9.79626C56.9549 9.79626 55.2206 21.8642 54.8071 24.7417C54.7567 25.0926 54.4564 25.3526 54.1025 25.3526C52.9107 25.3526 50.4075 25.3526 50.4075 25.3526L47.1257 17.2285H47.0022C47.0022 17.2285 46.194 22.8524 45.9225 24.7417C45.8721 25.0926 45.5717 25.3526 45.2177 25.3526C43.9968 25.3526 41.3898 25.3526 41.3898 25.3526Z" fill="white"/>
<path fill-rule="evenodd" clip-rule="evenodd" d="M56.5737 25.3526C56.5737 25.3526 58.3081 13.2843 58.7216 10.4068C58.772 10.0563 59.0724 9.79626 59.4263 9.79626C61.7056 9.79626 69.5201 9.79626 69.5201 9.79626L69.1158 12.6095C69.0654 12.9599 68.765 13.22 68.4111 13.22C66.8669 13.22 62.9583 13.22 62.9583 13.22L62.5007 16.4039H67.7338C67.7338 16.4039 67.4711 18.2322 67.3296 19.2167C67.2792 19.5671 66.9788 19.8272 66.6249 19.8272C65.2406 19.8272 62.0087 19.8272 62.0087 19.8272L61.3024 24.7417C61.252 25.0926 60.9516 25.3526 60.5976 25.3526C59.335 25.3526 56.5737 25.3526 56.5737 25.3526Z" fill="white"/>
<path fill-rule="evenodd" clip-rule="evenodd" d="M68.5578 25.3526L70.7057 10.4068C70.7561 10.0563 71.0565 9.79626 71.4104 9.79626C72.6768 9.79626 75.4515 9.79626 75.4515 9.79626C75.4515 9.79626 73.7172 21.8642 73.3036 24.7417C73.2532 25.0926 72.9528 25.3526 72.5988 25.3526C71.3325 25.3526 68.5578 25.3526 68.5578 25.3526Z" fill="white"/>
<path fill-rule="evenodd" clip-rule="evenodd" d="M78.0626 25.3526L79.7813 13.3933H75.7675C75.7675 13.3933 76.0492 11.4332 76.1967 10.4068C76.247 10.0563 76.5471 9.79626 76.9014 9.79626C79.445 9.79626 88.9862 9.79626 88.9862 9.79626L88.557 12.7828C88.5066 13.1333 88.2062 13.3933 87.8522 13.3933C86.7233 13.3933 84.4394 13.3933 84.4394 13.3933C84.4394 13.3933 83.1589 22.303 82.8084 24.7417C82.758 25.0926 82.4576 25.3526 82.1034 25.3526C80.8373 25.3526 78.0626 25.3526 78.0626 25.3526Z" fill="white"/>
<path d="M93.6838 25.4834C92.6076 25.4834 91.7035 25.4244 90.9714 25.3061C90.2393 25.1878 89.6556 24.971 89.2202 24.656C88.7847 24.341 88.4756 23.8896 88.2925 23.3016C88.1095 22.7137 88.0314 21.9546 88.0585 21.0238C88.0857 20.0926 88.197 18.9471 88.3925 17.5871C88.588 16.2266 88.8059 15.0811 89.0463 14.1503C89.2867 13.2195 89.5868 12.46 89.9463 11.8721C90.3058 11.2845 90.7509 10.8331 91.2823 10.5181C91.8134 10.2031 92.4595 9.98629 93.2202 9.86798C93.9811 9.74967 94.8923 9.69031 95.9535 9.69031C96.4555 9.69031 96.9929 9.7101 97.5655 9.74967C98.1379 9.78924 98.6934 9.84013 99.2317 9.90231C99.77 9.9645 100.243 10.0376 100.65 10.1216L100.479 11.3104C100.03 11.2357 99.5635 11.1735 99.0789 11.123C98.5943 11.0729 98.136 11.0329 97.704 11.0031C97.2719 10.9732 96.9011 10.9582 96.5913 10.9582C95.6336 10.9582 94.8131 10.9821 94.1297 11.0297C93.4461 11.0778 92.8698 11.2034 92.4005 11.4065C91.9314 11.61 91.5415 11.9476 91.231 12.4196C90.9207 12.8916 90.6555 13.5418 90.4361 14.3704C90.2165 15.1986 90.0121 16.2711 89.823 17.5871C89.6571 18.7419 89.5486 19.7147 89.4974 20.5057C89.4462 21.2968 89.4818 21.938 89.604 22.4294C89.726 22.9213 89.9523 23.2988 90.2827 23.5625C90.6132 23.8262 91.0713 24.0043 91.6569 24.0971C92.2426 24.1896 92.9819 24.236 93.8746 24.236C94.205 24.236 94.5834 24.2243 95.0099 24.2013C95.4363 24.1783 95.8577 24.15 96.2741 24.1173C96.6908 24.0846 97.0406 24.0503 97.3238 24.0144L98.1216 18.4629H94.2681L94.4473 17.2156H99.6971L98.5685 25.0683C98.0706 25.1519 97.5299 25.2249 96.9462 25.2871C96.3627 25.3489 95.7871 25.3974 95.2195 25.4317C94.6518 25.4664 94.14 25.4834 93.6838 25.4834Z" fill="white"/>
<path d="M106.748 25.4834C105.573 25.4834 104.61 25.4244 103.859 25.3061C103.107 25.1878 102.531 24.971 102.13 24.656C101.729 24.341 101.466 23.8896 101.342 23.3016C101.218 22.7137 101.193 21.9546 101.267 21.0238C101.341 20.0926 101.476 18.9471 101.671 17.5871C101.867 16.2266 102.061 15.0811 102.255 14.1503C102.448 13.2195 102.691 12.46 102.984 11.8721C103.278 11.2845 103.67 10.8331 104.161 10.5181C104.653 10.2031 105.292 9.98629 106.077 9.86798C106.863 9.74967 107.843 9.69031 109.018 9.69031C110.192 9.69031 111.155 9.74967 111.907 9.86798C112.658 9.98629 113.234 10.2031 113.635 10.5181C114.036 10.8331 114.3 11.2845 114.427 11.8721C114.553 12.46 114.579 13.2195 114.505 14.1503C114.431 15.0811 114.296 16.2266 114.101 17.5871C113.905 18.9471 113.711 20.0926 113.517 21.0238C113.324 21.9546 113.079 22.7137 112.784 23.3016C112.489 23.8896 112.095 24.341 111.603 24.656C111.112 24.971 110.473 25.1878 109.688 25.3061C108.903 25.4244 107.923 25.4834 106.748 25.4834ZM106.93 24.2158C107.817 24.2158 108.555 24.1908 109.144 24.1403C109.733 24.0903 110.216 23.961 110.592 23.7527C110.969 23.5443 111.278 23.2039 111.519 22.7319C111.76 22.2598 111.966 21.6109 112.135 20.7847C112.304 19.9586 112.482 18.8925 112.67 17.5871C112.858 16.2816 112.986 15.2155 113.054 14.3894C113.122 13.5632 113.103 12.9139 112.998 12.4418C112.892 11.9698 112.681 11.6298 112.365 11.4214C112.048 11.2126 111.602 11.0834 111.028 11.0334C110.453 10.9833 109.722 10.9582 108.835 10.9582C107.953 10.9582 107.217 10.9833 106.628 11.0334C106.039 11.0834 105.555 11.2126 105.176 11.4214C104.797 11.6298 104.488 11.9698 104.25 12.4418C104.011 12.9139 103.806 13.5632 103.637 14.3894C103.468 15.2155 103.29 16.2816 103.102 17.5871C102.914 18.8925 102.786 19.9586 102.718 20.7847C102.65 21.6109 102.667 22.2598 102.771 22.7319C102.874 23.2039 103.085 23.5443 103.404 23.7527C103.723 23.961 104.17 24.0903 104.744 24.1403C105.319 24.1908 106.048 24.2158 106.93 24.2158Z" fill="white"/>
<path fill-rule="evenodd" clip-rule="evenodd" d="M6.25082 36C2.79876 36 4.95911e-05 33.2012 4.95911e-05 29.7491C4.95911e-05 23.1598 4.95911e-05 12.8402 4.95911e-05 6.25091C4.95911e-05 2.79884 2.79876 0 6.25082 0H29.7492C33.2013 0 36 2.79884 36 6.25091C36 12.8402 36 23.1598 36 29.7491C36 33.2012 33.2013 36 29.7492 36C23.1599 36 12.8401 36 6.25082 36Z" fill="url(#paint0_linear_523_1597)"/>
<path fill-rule="evenodd" clip-rule="evenodd" d="M10.6864 15.0599C10.6864 15.0599 11.1671 12.2886 11.442 10.7024C11.5502 10.0776 12.0923 9.62106 12.727 9.61987C16.3093 9.61569 27.432 9.60315 27.432 9.60315C27.432 9.60315 26.8463 12.4354 26.5188 14.0192C26.3933 14.6255 25.8594 15.0599 25.2401 15.0599C21.7231 15.0599 10.6864 15.0599 10.6864 15.0599Z" fill="#282B33"/>
<path fill-rule="evenodd" clip-rule="evenodd" d="M15.2781 17.7132C15.3892 17.0907 15.9307 16.6372 16.5631 16.6372C19.2223 16.6372 25.811 16.6372 25.811 16.6372C25.811 16.6372 25.4012 18.9473 25.1499 20.364C25.0396 20.987 24.4976 21.4411 23.8647 21.4411C21.4428 21.4411 15.8418 21.4411 15.8418 21.4411C14.9573 21.4411 14.9494 22.0361 14.7709 22.8907C14.7709 22.8907 14.4321 24.5329 14.1993 25.6626C14.0742 26.2689 13.54 26.7045 12.9207 26.7045C11.2924 26.7045 8.36791 26.7045 8.36791 26.7045C8.36791 26.7045 8.90888 24.0239 9.21871 22.4884C9.34145 21.8791 9.87688 21.4411 10.4982 21.4411C11.8272 21.4411 13.9231 21.4411 13.9231 21.4411C14.7562 21.4411 14.7149 20.8688 14.8596 20.0578C14.8596 20.0578 15.0991 18.7163 15.2781 17.7132Z" fill="#282B33"/>
<defs>
<linearGradient id="paint0_linear_523_1597" x1="19.2019" y1="14.6709" x2="0.215331" y2="3.71719" gradientUnits="userSpaceOnUse">
<stop stop-color="#01FFC2"/>
<stop offset="0.42" stop-color="#41FB85"/>
<stop offset="1" stop-color="#CBF200"/>
</linearGradient>
</defs>
</svg>
