<svg width="50" height="50" viewBox="0 0 50 50" fill="none" xmlns="http://www.w3.org/2000/svg">
<path fill-rule="evenodd" clip-rule="evenodd" d="M25 0C38.7972 0 50 11.2025 50 25.0007C50 38.7975 38.7972 50 25 50C11.2015 50 0 38.7975 0 25.0007C0 11.2025 11.2015 0 25 0ZM22.1309 31.8139H16.406L15.6425 39.3245H20.2856C20.8192 39.3245 21.2684 38.9256 21.3331 38.3959L22.1309 31.8139ZM31.0776 22.3258H17.3716L16.7455 28.3412H29.5229C29.972 28.3412 30.3511 28.007 30.4079 27.5619L31.0776 22.3258ZM36.4868 12.464H18.958C18.6463 12.464 18.3848 12.6991 18.3531 13.0095C18.1985 14.4916 17.7824 18.4794 17.7824 18.4794H34.9321C35.3812 18.4794 35.7603 18.1452 35.8171 17.6987L36.4868 12.464Z" fill="#01FFC2"/>
</svg>
